<?xml version="1.0" encoding="UTF-8" standalone="no"?>
<svg viewBox="0 0 2000 2000" version="1.1" id="lsv-degerfeld-logo" sodipodi:docname="drawing.svg"
   inkscape:version="1.3.2 (1:1.3.2+202404261509+091e20ef0f)"
   xmlns:inkscape="http://www.inkscape.org/namespaces/inkscape"
   xmlns:sodipodi="http://sodipodi.sourceforge.net/DTD/sodipodi-0.dtd" xmlns:xlink="http://www.w3.org/1999/xlink"
   xmlns="http://www.w3.org/2000/svg" xmlns:svg="http://www.w3.org/2000/svg">
   <defs id="defs1" />
   <sodipodi:namedview id="namedview1" pagecolor="#ffffff" bordercolor="#000000" borderopacity="0.25"
      inkscape:showpageshadow="2" inkscape:pageopacity="0.0" inkscape:pagecheckerboard="0" inkscape:deskcolor="#d1d1d1"
      inkscape:zoom="0.4425" inkscape:cx="1000" inkscape:cy="1000" inkscape:window-width="3840"
      inkscape:window-height="1531" inkscape:window-x="1440" inkscape:window-y="520" inkscape:window-maximized="1"
      inkscape:current-layer="lsv-degerfeld-logo" />
   <image width="2000" height="2000" preserveAspectRatio="none" xlink:href="Logo%20(Copy).png" id="image1" x="0" y="0"
      style="display:none" />
   <path id="outer-ring-with-letters" style="fill: #0087c1;" d="m 2000,1000 a 1000,1000 0 1 1 -2000,0 1000,1000 0 1 1 2000,0 z
      m -200,0 a 800,800 0 1 0 -1600,0 800,800 0 1 0 1600,0 z
      M 147.3426,1070.5205 m 0,0 8.78594,62.0208 -103.011523,14.5927 3.938523,27.8024 126.89309,-17.9758 -12.72446,-89.8232 z
      M 41.446536,952.56466 l 0.216111,28.07916 76.677733,-0.59014 c 10.43969,-0.0803 18.1947,1.84002 23.26225,5.40112 5.06756,3.56111 7.64013,10.38151 7.71771,20.4612 0.0803,10.4397 -2.38417,17.6589 -7.39354,21.6576 -5.00938,3.9986 -12.73391,6.0381 -23.1736,6.1185 l -76.677727,0.5901 0.21611,28.0792 76.677727,-0.5901 c 18.35946,-0.1413 32.00581,-4.5665 40.75628,-13.6341 8.75047,-9.0676 12.96367,-22.9605 12.81683,-42.0399 -0.14407,-18.71945 -4.56923,-32.3658 -13.27686,-41.11904 -8.70762,-8.75324 -22.42185,-13.14783 -40.78131,-13.00652 z
      m 14.08553,-121.36231 -11.295391,89.65123 127.154735,16.02056 3.51012,-27.85975 -52.14773,-6.57023 6.77274,-53.75502 -22.14493,-2.7901 -6.77273,53.75503 -29.467041,-3.71263 7.78527,-61.79149 z
      M 83.0151,717.18912 57.549214,819.36338 l 23.229361,5.78968 9.315726,-37.37657 101.126319,25.2047 6.83443,-27.42112 -101.126315,-25.2047 9.315725,-37.37657 z
      m 76.63881,-94.82316 c -12.8878,-4.60181 -23.97749,-3.87547 -33.60481,2.04908 -9.69228,6.09243 -17.10465,15.76937 -22.30207,29.1987 -5.392316,13.93293 -6.322854,26.31148 -3.19231,37.17358 3.29841,10.92707 10.40328,18.50206 21.31461,22.72496 3.35733,1.29935 6.50887,2.13304 9.68744,2.39816 3.17857,0.26512 5.91851,0.16746 8.32271,-0.0601 2.40421,-0.22759 4.83545,-1.02374 7.59153,-2.65923 2.58822,-1.70046 4.81366,-2.96228 6.47054,-4.25114 1.59191,-1.12099 3.57362,-3.24919 6.21591,-6.08678 2.47442,-2.90255 4.28827,-5.09571 5.37658,-6.41161 1.15327,-1.48376 3.03209,-3.84479 5.76638,-7.41882 0.19491,-0.50359 0.55768,-0.94223 0.92045,-1.38086 0.42773,-0.6065 0.72553,-0.87726 1.02334,-1.14803 0.12993,-0.33573 0.4927,-0.77436 0.92044,-1.38086 7.90507,-10.45131 13.34662,-17.03079 16.79031,-19.94424 3.27582,-2.97842 6.9471,-3.48767 11.14376,-1.86348 4.86813,1.88407 8.01442,5.22486 9.30893,10.35811 1.2945,5.13324 0.72634,11.08969 -1.93734,17.97222 -6.75664,17.45812 -17.8189,23.59937 -32.95393,18.32084 l -10.07,26.01933 c 13.4943,5.02955 25.88899,4.42225 36.78338,-1.78397 10.89439,-6.20621 19.69287,-17.46982 25.92977,-33.58501 2.46877,-6.37893 3.96827,-12.74697 4.83424,-18.97417 0.86597,-6.22721 0.69771,-12.27566 -0.5048,-18.14534 -1.2025,-5.86968 -3.73704,-11.28984 -7.73355,-15.92474 -3.93155,-4.80276 -9.45501,-8.48453 -16.16967,-11.08324 -9.40053,-3.63819 -17.72324,-3.57807 -24.96814,0.18036 -7.24491,3.75843 -14.88486,11.03117 -22.78993,21.48248 -1.87882,2.36102 -3.88757,5.05778 -6.15619,8.42601 -2.37152,3.13539 -4.08247,5.56139 -5.36569,7.38088 -1.45108,1.75453 -2.96712,3.67693 -4.54814,5.76719 -1.58101,2.09026 -2.96712,3.67692 -4.15833,4.75998 -1.12624,0.9152 -2.25248,1.83039 -3.77942,2.78352 -1.46198,0.78526 -2.79402,1.23479 -3.99612,1.34858 -1.305,-0.11904 -2.77787,-0.30305 -4.1208,-0.82279 -4.36453,-1.68916 -7.00722,-4.83505 -8.058,-9.10193 -1.05078,-4.26688 -0.40675,-9.42192 1.93209,-15.46511 5.45729,-14.1008 14.25617,-19.38093 26.5645,-15.77542 z
      m -23.11404,-40.40621 112.44987,61.48179 13.38438,-24.47995 -40.43142,-22.10582 13.81614,-25.26963 c 6.47631,-11.84515 8.74294,-23.11986 6.79989,-33.82415 -2.0294,-10.54635 -8.95928,-19.25879 -20.80442,-25.7351 -12.00308,-6.56267 -23.07781,-7.69422 -33.13784,-3.5526 -10.06002,4.14163 -18.65883,12.36453 -25.5669,24.99935 z
      m 33.60008,-13.42705 12.08912,-22.11093 c 6.90807,-12.63482 15.97618,-16.08789 26.71578,-10.21603 10.73959,5.87186 12.56901,15.28313 5.57459,28.07588 l -12.00277,21.953 z
      m 62.20246,-147.01961 c -11.58538,15.38593 -15.86421,31.54179 -13.01581,48.10726 2.84839,16.56546 12.46883,31.01984 28.57372,43.1466 16.10489,12.12675 32.5111,17.27006 49.32692,15.28615 16.70754,-1.84013 30.79986,-10.38125 42.27697,-25.62338 11.26056,-14.95454 15.57491,-30.85834 12.72651,-47.4238 -2.84839,-16.56547 -12.21676,-31.05537 -28.32165,-43.18212 -15.9611,-12.01848 -32.47559,-17.018 -49.32692,-15.28615 -16.85134,1.73185 -30.97918,10.0209 -42.23974,24.97544 z
      m 18.18904,14.14674 c 6.3882,-8.48383 14.64057,-12.86009 24.7571,-13.12879 10.00826,-0.1249 20.44102,3.67501 31.22555,11.79561 10.92832,8.22886 17.71527,17.16983 20.36085,26.8229 2.64559,9.65306 0.72015,18.7934 -5.66805,27.27723 -6.74855,8.66314 -15.10919,13.18319 -25.08192,13.56017 -10.00826,0.1249 -20.58482,-3.78329 -31.51314,-12.01216 -10.64073,-8.01232 -17.17562,-16.9888 -19.71293,-26.78566 -2.53731,-9.79686 -0.75566,-19.04548 5.63254,-27.5293 z
      m 42.55794,-84.37815 89.79536,91.44277 19.90678,-19.54815 -35.18666,-35.83221 17.85188,-17.53027 c 6.42155,-6.30585 12.04937,-9.30953 17.01421,-9.39168 5.09096,0.0463 10.92011,2.89952 17.99655,8.56436 0.37835,0.38529 2.27242,2.05721 5.80832,5.14417 3.53591,3.08697 6.44123,5.53179 8.84439,7.20833 2.27474,1.80266 4.5541,3.09622 6.71197,3.75226 l 20.8058,-20.43097 c -1.40117,0.11455 -2.79771,-0.28 -4.5726,-1.05984 -1.7749,-0.77984 -3.79971,-2.07109 -5.82221,-3.61689 -2.14862,-1.67422 -4.04501,-3.09159 -5.43461,-4.24978 -1.51803,-1.03208 -3.4121,-2.70399 -5.68452,-4.7612 -2.52697,-2.05952 -3.78814,-3.34383 -4.16649,-3.72912 -13.51535,-11.45117 -25.07299,-14.2292 -34.42068,-8.07723 2.72945,-6.21213 3.55093,-12.56889 2.20992,-19.07258 -1.34101,-6.5037 -4.59692,-12.38838 -9.76772,-17.65405 -8.57596,-8.7333 -17.96184,-12.38258 -27.77466,-11.07164 -10.06737,1.30862 -19.53423,6.56851 -28.52439,15.39671 z
      m 35.5453,-3.62272 19.90678,-19.54815 c 5.13724,-5.04468 9.8753,-8.18372 14.72327,-9.4125 4.72187,-1.35721 9.41596,0.34016 14.20841,5.22053 5.04469,5.13723 6.65413,10.11596 5.33743,14.9408 -1.3167,4.82484 -4.80053,10.01184 -10.32306,15.43487 l -19.00777,18.66533 z
      m 137.12218,-144.79672 -84.12365,63.33484 14.3992,19.12554 30.77344,-23.16864 62.68525,83.26084 22.57677,-16.99755 -62.68525,-83.26084 30.77344,-23.16865 z
      m 5.7749,-4.2198 100.29287,90.14038 27.61069,-15.89684 -26.97635,-132.35232 -25.2708,14.54964 19.63552,92.54595 -69.86514,-63.62628 z
      m 205.71409,-102.204504 -88.70208,37.026944 49.36926,118.26945 89.86484,-37.51232 -9.08339,-21.76025 -64.11798,26.7648 -12.1343,-29.06904 57.80585,-24.12992 -8.52868,-20.43138 -57.80585,24.12992 -10.74752,-25.74686 62.95522,-26.27942 z
      m 28.04124,-9.601188 32.76273,123.901532 26.97295,-7.13234 -12.83821,-48.5513 24.18864,-6.3961 c 8.70095,-2.30075 15.07775,-2.12507 19.43241,0.26099 4.40069,2.56008 8.05343,7.92454 11.39829,16.3494 0.13805,0.52206 0.95628,2.91231 2.50071,7.34477 1.54443,4.43247 2.85878,7.99483 4.11708,10.64109 1.08428,2.69228 2.42457,4.94448 3.97485,6.5826 l 28.19108,-7.45444 c -1.27419,-0.594 -2.29237,-1.62808 -3.4486,-3.18421 -1.15623,-1.55613 -2.27648,-3.68033 -3.26873,-6.02456 -1.03826,-2.51826 -1.9845,-4.68848 -2.61867,-6.38265 -0.80819,-1.64816 -1.62642,-4.03841 -2.58269,-6.95072 -1.17631,-3.04031 -1.63646,-4.7805 -1.77451,-5.30256 -6.07565,-16.63973 -14.74315,-24.77426 -25.91049,-24.05557 5.44645,-4.04679 9.30665,-9.16363 11.36056,-15.47852 2.05391,-6.3149 2.13756,-13.03973 0.25094,-20.174509 -3.12902,-11.833292 -9.47823,-19.649915 -18.65356,-23.367879 -9.39537,-3.845967 -20.22471,-3.961397 -32.40604,-0.740342 z
      m 32.67881,14.446022 26.97295,-7.132339 c 6.96076,-1.840603 12.63144,-2.222957 17.4521,-0.891052 4.77466,1.157885 8.01326,4.956179 9.76183,11.568901 1.84061,6.96076 0.77475,12.08345 -2.75749,15.62408 -3.53225,3.54063 -9.12679,6.32327 -16.60961,8.30192 l -25.75481,6.81023 z
      m 195.68063,-58.46191 -95.41052,11.657139 15.54286,127.214011 96.66121,-11.80995 -2.85971,-23.40594 -68.96715,8.42632 -3.82022,-31.26749 62.17763,-7.59679 -2.68507,-21.976578 -62.17764,7.596788 -3.38362,-27.694062 67.71645,-8.273513 z
      m 50.82681,-0.960335 -28.24647,0.874491 3.96585,128.098624 28.24647,-0.87449 z
      m 19.24465,126.374365 27.1139,1.89461 5.9975,-85.830714 46.9734,89.532104 28.0117,1.95735 8.9335,-127.848263 -26.9343,-1.882063 -5.985,85.651156 -46.6268,-89.327453 -28.5503,-1.994988 z
      m 163.5019,16.98601 49.9963,13.70238 c 19.0958,5.23355 35.279,4.06971 48.6447,-3.83872 13.3181,-7.73483 22.7129,-21.58415 28.1843,-41.54795 5.4239,-19.7902 4.4028,-36.49418 -3.0633,-50.11194 -7.5136,-13.444157 -20.7946,-22.86981 -39.8904,-28.103359 l -49.9963,-13.702384 z
      m 33.0928,-15.19323 21.5051,-78.466421 19.7902,5.423861 c 11.9783,3.28286 20.0539,9.22887 24.1007,17.61684 4.0468,8.38798 4.3336,18.9183 0.908,31.41738 -7.1842,26.21334 -22.7308,35.95035 -46.6874,29.38462 z
      m 224.662,-30.255 -88.2875,-38.00489 -50.6732,117.71666 89.4448,38.50309 9.3233,-21.65855 -63.8183,-27.4717 12.4548,-28.93317 57.5357,24.76724 8.7539,-20.33589 -57.5357,-24.76723 11.0314,-25.62652 62.661,26.97351 z
      m 92.8322,122.65783 -45.9548,-28.01337 -10.8681,17.82861 24.4375,14.89675 c -4.8045,7.18997 -11.0712,11.59135 -18.6465,13.2978 -7.7289,1.61276 -15.1884,0.0169 -22.5657,-4.48025 -9.5291,-5.80879 -15.0927,-13.62721 -16.2896,-23.42156 -1.197,-9.79435 1.8116,-20.60878 9.1194,-32.59699 7.1205,-11.68082 15.261,-19.15609 24.5153,-22.5795 9.2544,-3.42342 18.3855,-2.49496 27.6072,3.12645 6.3015,3.8413 10.4965,8.71741 12.7725,14.32095 2.336,5.85092 2.2318,11.90081 -0.1589,18.24335 l 23.2079,14.14722 c 5.5498,-12.21664 6.0993,-24.53011 1.8022,-36.84673 -4.2972,-12.31662 -12.5936,-22.22254 -25.1966,-29.90514 -15.6769,-9.5564 -31.8664,-12.04705 -48.5686,-7.47196 -16.5485,4.66879 -29.9588,15.25586 -40.2648,32.16231 -10.3059,16.90645 -13.8798,33.48969 -10.7216,49.74975 3.0644,16.41374 12.3283,29.22828 27.5441,38.50361 13.8325,8.43212 27.743,10.16588 42.0723,4.9876 l -5.2834,13.85464 15.2158,9.27533 z
      m 129.6853,29.51019 -74.231,-61.06399 -81.4187,98.97468 75.2041,61.86446 14.9801,-18.21023 -53.6576,-44.13989 20.0116,-24.32664 48.3752,39.79451 14.0653,-17.09816 -48.3752,-39.79451 17.7245,-21.54645 52.6846,43.33942 z
      m 21.607,20.28861 -94.167,86.93416 18.9252,20.49985 36.8998,-34.06549 16.9717,18.38374 c 6.1049,6.61286 8.9337,12.33058 8.8628,17.2956 -0.2032,5.08711 -3.2348,10.82555 -9.115,17.72402 -0.3968,0.36629 -2.1263,2.20793 -5.3208,5.647 -3.1945,3.43908 -5.7277,6.26766 -7.4775,8.61801 -1.8719,2.21809 -3.2351,4.4565 -3.9574,6.59313 l 19.78,21.42565 c -0.071,-1.40403 0.3661,-2.78775 1.2003,-4.53776 0.8342,-1.75002 2.1872,-3.73407 3.7946,-5.70796 1.7397,-2.096 3.2148,-3.94779 4.4153,-5.30103 1.0784,-1.4855 2.8079,-3.32714 4.9341,-5.53507 2.1365,-2.46229 3.459,-3.68328 3.8558,-4.04957 11.8623,-13.15597 14.9953,-24.62249 9.1343,-34.15536 6.1251,2.91962 12.4535,3.93665 18.9954,2.79674 6.542,-1.13991 12.5242,-4.21289 17.9468,-9.21893 8.9935,-8.3027 12.9303,-17.57164 11.9225,-27.4202 -0.9977,-10.10292 -5.9633,-19.72741 -14.5102,-28.98541 z
      m 2.5254,35.64007 18.9253,20.49986 c 4.8839,5.29028 7.8755,10.12284 8.9542,15.00639 1.211,4.76146 -0.6302,9.401 -5.656,14.04075 -5.2903,4.88394 -10.3162,6.33916 -15.0982,4.87437 -4.782,-1.46479 -9.8591,-5.10685 -15.1093,-10.7939 L 1645.57,371.92278 Z
      m 139.7321,140.06308 -52.098,-73.82905 -104.7137,73.89198 16.1898,22.94289 42.9444,-30.30401 31.2381,44.26801 18.2366,-12.86882 -31.238,-44.26802 24.2665,-17.12384 35.9082,50.88615 z
      m 57.0552,104.07922 -45.3696,-84.73876 -112.985,60.49276 45.9643,85.84957 20.788,-11.12999 -32.7953,-61.25311 27.7702,-14.86831 29.5667,55.22301 19.5185,-10.45029 -29.5667,-55.22301 24.5965,-13.16907 32.2005,60.1423 z
      m -53.735,146.64544 -22.5714,-58.43205 97.051,-37.48915 -10.1182,-26.19368 -119.5506,46.1804 32.6895,84.62574 z
      m -20.2315,15.0043 12.1007,50.40793 c 4.6218,19.25302 13.444,32.86987 26.8167,40.76651 13.1976,7.93866 29.8606,9.49205 49.9887,4.66018 19.9532,-4.78986 34.0951,-13.73812 42.4258,-26.84478 8.1557,-13.06465 10.0102,-29.24449 5.3884,-48.49752 l -12.1007,-50.40792 z
      m 29.2661,21.66715 79.1124,-18.99137 4.7899,19.95314 c 2.8991,12.0769 1.5834,22.01865 -3.8141,29.60823 -5.3975,7.58957 -14.4848,12.91795 -27.0868,15.94312 -26.4291,6.34446 -42.4553,-2.58122 -48.2536,-26.73501 z
      m 135.7543,228.91054 -4.6067,-96.00949 -128.0128,6.14236 4.6672,97.26813 23.5529,-1.1302 -3.33,-69.40011 31.4638,-1.50971 3.0022,62.56802 22.1145,-1.0611 -3.0021,-62.56804 27.8679,-1.33717 3.2696,68.14161 z
      m -102.6818,45.0003 1.1611,-28.4163 -28.0566,-1.1464 -1.1611,28.4163 z
      m 100.4696,13.2188 -132.0903,27.1315 -3.614,31.6543 122.4936,56.9225 3.3078,-28.9718 -86.1113,-39.1809 92.686,-18.405 z
      m -116.6938,110.6379 5.2739,-27.9468 -27.5929,-5.2072 -5.274,27.9468 z    

      M 246.04277,1596.7197 m 0,0 34.40759,38.775 c 13.14178,14.8099 27.33587,22.6698 42.85152,23.3407 15.38102,0.7905 30.81307,-5.6839 46.29615,-19.423 15.34846,-13.6197 23.61226,-28.1722 24.79142,-43.6575 1.04452,-15.3659 -4.9368,-30.5135 -18.07858,-45.3234 l -34.40759,-38.7751 z
      m 36.02059,5.3373 60.85527,-54.0008 13.61967,15.3484 c 8.24348,9.2899 11.76325,18.6803 10.57448,27.9173 -1.18878,9.237 -6.69737,18.2161 -16.39113,26.818 -20.32997,18.0401 -38.67112,17.7106 -55.15809,-0.8691 z
      m 135.95319,84.3579 -40.25203,-36.2663 -15.30174,16.9834 40.25203,36.2663 z
      m 118.15449,9.3158 -69.06101,-51.3172 -13.74185,18.4933 48.25602,35.8576 c -15.46944,2.4089 -32.82619,9.4702 -52.21474,21.0766 -19.38855,11.6064 -33.48452,23.3332 -42.50261,35.4694 l 21.23843,15.7817 c 13.89434,-16.586 28.20102,-29.5018 42.92003,-38.7474 14.719,-9.2455 32.15,-15.8032 52.40034,-19.8173 z
      m 27.88904,135.8719 -51.38261,-30.1597 c 2.08892,-1.0697 4.48832,-1.9572 7.19818,-2.6625 2.55463,-0.7965 5.57496,-1.3195 8.99688,-1.8156 3.17557,-0.4319 6.01367,-0.6445 8.20383,-0.82 2.28128,-0.3307 5.42984,-0.3611 9.31747,-0.5838 3.88762,-0.2227 6.47936,-0.3712 8.02159,-0.5095 10.85969,-0.7221 19.36387,-2.4094 25.91411,-5.0349 6.3039,-2.5614 11.9025,-7.8326 16.64057,-15.9048 5.74035,-9.7797 6.97215,-19.7013 3.7865,-29.9198 -3.18565,-10.2185 -10.36691,-18.608 -21.23333,-24.9861 -12.10829,-7.1071 -23.91963,-9.0307 -35.3429,-5.9261 -11.42327,3.1047 -20.73402,10.7887 -27.93224,23.0523 l -1.36675,2.3285 21.11189,12.3919 c 9.82373,-15.3143 20.36959,-19.7688 31.54647,-13.2084 4.65704,2.7335 7.4715,6.4727 8.62562,10.907 1.15412,4.4343 0.42854,9.2263 -2.30496,13.8834 -1.27563,2.1733 -3.01697,4.0732 -4.97766,5.6357 -2.11593,1.4713 -3.89438,2.7233 -5.55472,3.4185 -1.75146,0.8504 -4.05974,1.5827 -7.17119,2.261 -3.26668,0.5872 -5.54796,0.9179 -6.93495,1.1473 -1.45111,-0.017 -4.04285,0.1316 -7.77524,0.4455 -3.79651,0.067 -5.98667,0.2429 -6.88096,0.3442 -6.88095,0.3441 -12.15556,0.7963 -15.73271,1.2013 -3.57716,0.4049 -7.98448,1.1575 -13.06674,2.3487 -5.23749,1.1001 -9.45246,2.5917 -12.64491,4.4748 -3.19244,1.883 -6.59412,4.4781 -10.20503,7.7853 -3.61091,3.3071 -6.87423,7.4445 -9.78997,12.412 l 79.63529,46.7429 z
      m 105.73812,17.4401 -15.43214,-6.9379 31.22082,-69.4447 -21.01399,-9.4474 -80.16953,44.8727 -9.66886,21.5065 49.25153,22.1425 -11.8831,26.4316 21.67067,9.7427 11.8831,-26.4317 15.43215,6.938 z
      m -37.10282,-16.6806 -30.53594,-13.7283 49.72605,-28.9564 z
      m 141.51536,5.6431 c 1.74179,-10.6007 0.19253,-19.8105 -4.81897,-27.685 -5.06713,-7.7034 -12.85183,-13.451 -23.80776,-17.0116 -14.37965,-4.6733 -27.68508,-2.7517 -39.74512,5.8204 -11.88885,8.6279 -21.17566,22.6438 -27.57369,42.3302 -6.11985,18.8305 -6.74035,34.7165 -2.25952,47.7181 4.65202,13.0572 14.11008,21.8091 28.14735,26.3712 12.4966,4.0613 24.04739,3.4621 34.70799,-1.9688 10.60496,-5.2597 17.88035,-14.2513 21.77052,-26.8035 3.72754,-11.4695 3.36374,-21.9974 -1.20695,-31.8107 -4.62634,-9.642 -12.47524,-16.3568 -23.43116,-19.9174 -11.12711,-3.6163 -21.53094,-1.8873 -31.10023,4.8446 9.56068,-23.0117 20.98733,-32.5468 34.33986,-28.2072 8.55931,2.7817 12.36394,9.1284 11.69634,18.7534 z
      m -49.76377,13.3527 c 5.82033,1.8916 9.71911,5.6191 11.97878,10.8959 2.43086,5.3325 2.41804,11.1956 0.35954,17.5295 -2.11413,6.5051 -5.55068,11.2555 -10.65202,14.14 -4.98578,3.1113 -10.27543,3.6634 -15.92458,1.8275 -5.47796,-1.7804 -9.43237,-5.3367 -11.69204,-10.6135 -2.08849,-5.2212 -2.24685,-11.14 -0.13272,-17.6451 2.05849,-6.3338 5.66623,-11.0286 10.48083,-14.1956 4.93015,-2.9401 10.10425,-3.719 15.58221,-1.9387 z
      m 125.78954,-30.6399 -20.61492,-4.3068 c -6.6317,15.8999 -19.24912,21.7226 -37.92589,17.8207 l -3.17153,-0.6626 -3.86508,18.5006 29.9533,6.2578 -16.74871,80.1691 26.60558,5.5584 z
      m 139.7685,11.0082 -28.96744,-0.853 -52.53638,126.8486 28.78752,0.8477 11.27787,-28.3003 47.67933,1.404 9.23329,28.9043 29.5072,0.8689 z
      m 0.008,79.2346 -34.00526,-1.0014 18.49658,-47.176 z
      m 147.75035,16.0612 -62.3611,5.9044 -9.8067,-103.5768 -27.9549,2.6468 12.0802,127.5894 90.3161,-8.5512 z
      m -6.105,-104.0778 27.9705,125.0705 62.5352,-13.9852 c 12.2963,-2.7499 21.6018,-8.151 28.2287,-16.4575 6.4512,-8.2673 8.4487,-18.3052 5.7773,-30.2501 -3.5748,-15.9852 -13.5824,-24.445 -29.6714,-25.4581 4.7592,-3.4621 8.053,-7.7032 10.1935,-12.9775 1.9648,-5.235 2.4065,-10.6827 1.0709,-16.6552 -2.3571,-10.5397 -7.9502,-17.4045 -16.5064,-21.0244 -8.5563,-3.6198 -18.8069,-4.0941 -30.4006,-1.5014 z
      m 31.4539,15.2837 24.9438,-5.5784 c 6.3238,-1.4142 11.478,-1.4602 15.814,-0.2165 4.1603,1.2829 6.9568,4.7154 8.2532,10.5122 2.1606,9.6613 -3.7659,16.1512 -17.4674,19.2154 l -24.9439,5.5783 z
      m 10.7639,48.1311 26.1735,-5.8534 c 7.5534,-1.6892 13.7615,-1.9709 18.6638,-0.6694 4.9022,1.3015 8.2072,5.358 9.7393,12.2087 1.4928,6.6751 0.3669,11.5381 -3.2989,14.9401 -3.7052,3.2265 -9.0514,5.7132 -16.2535,7.3238 l -27.5787,6.1677 z
      m 171.0606,-86.1672 c -5.0403,-12.7227 -12.8999,-20.5799 -23.7026,-23.9096 -10.9718,-3.2678 -23.1345,-2.4577 -36.6571,2.492 -14.0296,5.1353 -23.9484,12.5994 -30.0489,22.1162 -6.0386,9.6858 -7.0471,20.0223 -3.0255,31.0094 1.2374,3.3807 2.6892,6.2995 4.5862,8.8637 1.8969,2.5642 3.7773,4.5594 5.534,6.2166 1.7566,1.6571 3.9585,2.9597 7.0055,3.9528 2.9852,0.8241 5.4014,1.6648 7.463,2.0603 1.8925,0.4574 4.7992,0.5435 8.6748,0.6583 3.8137,-0.054 6.6586,-0.1371 8.3655,-0.1868 1.8759,-0.1116 4.8898,-0.2564 9.3797,-0.5581 0.5071,-0.1856 1.0761,-0.2022 1.645,-0.2188 0.738,-0.078 1.138,-0.033 1.5379,0.012 0.3381,-0.1238 0.907,-0.1404 1.645,-0.2188 13.0697,-0.9503 21.6042,-1.1991 26.0654,-0.5318 4.3993,0.4981 7.2033,2.922 8.7501,7.1478 1.7943,4.902 1.3579,9.4703 -1.647,13.8288 -3.005,4.3584 -7.8572,7.8596 -14.7875,10.3963 -17.5794,6.4346 -29.4913,2.1692 -35.505,-12.6891 l -26.2,9.5901 c 5.1187,13.4607 13.7495,22.3773 25.5996,26.4737 11.8501,4.0964 26.1196,3.2819 42.3467,-2.6577 6.4232,-2.3511 12.1991,-5.4236 17.4512,-8.8795 5.2521,-3.4559 9.6878,-7.5713 13.307,-12.3463 3.6192,-4.775 6.0221,-10.2548 6.8705,-16.3157 1.0174,-6.1228 0.1423,-12.7029 -2.3326,-19.4642 -3.4648,-9.4658 -8.9988,-15.6824 -16.602,-18.6498 -7.6033,-2.9673 -18.1088,-3.914 -31.1785,-2.9636 -3.0138,0.1448 -6.3658,0.4133 -10.3938,0.9293 -3.9209,0.2851 -6.8729,0.5989 -9.087,0.8343 -2.2758,0.066 -4.7207,0.1945 -7.3347,0.3845 -2.6139,0.1901 -4.7207,0.1946 -6.3205,0.013 -1.4307,-0.243 -2.8614,-0.4861 -4.5849,-1.0053 -1.5545,-0.5811 -2.7708,-1.2859 -3.6492,-2.1145 -0.7711,-1.0595 -1.6042,-2.288 -2.0991,-3.6403 -1.6087,-4.3948 -0.9868,-8.456 1.5277,-12.0599 2.5144,-3.6039 6.8142,-6.5195 12.8994,-8.7469 14.1987,-5.1972 23.9707,-2.0652 29.3777,9.5648 z
      m 81.8781,-83.7389 -94.0676,47.3221 10.7587,21.3863 34.411,-17.311 46.8368,93.1028 25.2455,-12.7002 -46.8368,-93.1027 34.4111,-17.311 z
      m 44.2912,-30.9403 -24.166,15.9951 30.1584,133.9444 24.016,-15.8957 -7.0907,-29.6281 39.7764,-26.3273 24.202,18.3023 24.6163,-16.2931 z
      m 45.6646,64.7523 -28.3688,18.7768 -12.0679,-49.2145 z
      m 77.3864,5.7135 38.8916,-34.2758 c 14.8545,-13.0914 22.7625,-27.2587 23.4861,-42.772 0.8426,-15.3782 -5.5793,-30.8322 -19.2658,-46.3618 -13.5675,-15.3946 -28.0919,-23.7078 -43.5731,-24.9395 -15.3622,-1.0967 -30.53,4.8332 -45.3845,17.9246 l -38.8916,34.2758 z
      m 5.4596,-36.0023 -53.7939,-61.0382 15.3946,-13.5675 c 9.3177,-8.2119 18.7201,-11.6997 27.953,-10.4796 9.2329,1.2201 18.1933,6.7591 26.7622,16.482 17.971,20.3911 17.5792,38.7311 -1.0564,55.1549 z
      m 61.6882,-212.6243 -69.2451,79.3297 18.0356,15.7429 25.3307,-29.0198 78.5161,68.5349 18.5837,-21.2902 -78.5161,-68.5349 25.3307,-29.0197 z
      M 219,1415 a 15,15 0 1 0 -30,0 15,15 0 1 0 30,0 z
      M 1814,1415 a 15,15 0 1 0 -30,0 15,15 0 1 0 30,0 z
      " />

   <path id="inner-circle-with-birds" style="fill: #0087c1"
      d="m 1775,1000 a 775,775 0 1 0 -1550,0 775,775 0 1 0 1550,0 z
      M 606,526 c -11,-7 -11,-7 -23.5,-5 -13,2 -178,34 -178,34 l 170,-113 c 13,-8 13,-8 25,-1 12,7 399,210 411,216 12,6 12,6 20,1 8,-5 346,-193 360,-202 14,-9 14,-9 30,2 C 1607,584 1606,584 1606,584 l -205,-41 c -13,-3 -13,-3 -25,6 -12,8 -276,167 -293,178 -14,9 -14,9 -24,35 -31,78 -103,97 -171,102 -36,2 -62,-4 -54,31 -44,-33 -41,-81 -22,-107 19,-26 84,-54 97,-61 11,-6 11,-6 -9,-17 z
      m -2,342 c -11,-7 -11,-7 -27,-2 -16,5 -290,72 -290,72 L 579,781 c 13,-8 18,-5 30,2 12,7 371,210 383,216 12,6 12,6 21,1 8,-5 361,-196 375,-205 14,-9 14,-9 29,0 285,153 285,153 285,153 l -288,-79 c -13,-3 -13,-3 -25,5 -12,8 -288,176 -305,186 -15,9 -15,9 -19,22 -23,72 -144,98 -166,100 -33,2 -64,-4 -62,39 -43,-37 -24,-92 -12,-105 12,-14 56,-42 69,-50 9,-5 6,-6 -13,-18 z
      m -12,333 c -11,-7 -11,-7 -24,-4 -13,3 -261,64 -261,64 l 266,-135 c 14,-7 17,-7 29,0 12,7 380,211 392,217 12,6 13,6 21,1 8,-5 357,-203 371,-212 14,-9 11,-10 28,-1 259,146 261,144 261,144 l -268,-66 c -13,-3 -14,-5 -26,4 -12,8 -292,182 -309,193 -14,9 -9,2 -19,28 -31,78 -134,103 -167,102 -33,-1 -53,17 -45,52 -60,-31 -53,-87 -34,-113 19,-26 69,-53 80,-61 12,-9 18,-9 -1,-21 z" />
   <g id="sources" display="none">
      <g id="circles">
         <circle style="fill: none; stroke: #0087c1; stroke-width: 200" id="outer-ring" cx="1000" cy="1000" r="900" />
         <circle style="fill: #0087c1;" id="inner-circle" cx="1000" cy="1000" r="775" />
      </g>
      <g id="birds">
         <path style="fill: #fff"
            d="m 606,526 c -11,-7 -11,-7 -23.5,-5 -13,2 -178,34 -178,34 l 170,-113 c 13,-8 13,-8 25,-1 12,7 399,210 411,216 12,6 12,6 20,1 8,-5 346,-193 360,-202 14,-9 14,-9 30,2 C 1607,584 1606,584 1606,584 l -205,-41 c -13,-3 -13,-3 -25,6 -12,8 -276,167 -293,178 -14,9 -14,9 -24,35 -31,78 -103,97 -171,102 -36,2 -62,-4 -54,31 -44,-33 -41,-81 -22,-107 19,-26 84,-54 97,-61 11,-6 11,-6 -9,-17 z"
            id="bird-top" />
         <path style="fill: #fff"
            d="M 604,868 c -11,-7 -11,-7 -27,-2 -16,5 -290,72 -290,72 l 292,-157 c 13,-8 18,-5 30,2 12,7 371,210 383,216 12,6 12,6 21,1 8,-5 361,-196 375,-205 14,-9 14,-9 29,0 285,153 285,153 285,153 l -288,-79 c -13,-3 -13,-3 -25,5 -12,8 -288,176 -305,186 -15,9 -15,9 -19,22 -23,72 -144,98 -166,100 -33,2 -64,-4 -62,39 -43,-37 -24,-92 -12,-105 12,-14 56,-42 69,-50 9,-5 6,-6 -13,-18 z"
            id="bird-middle" />
         <path style="fill: #fff"
            d="M 592,1201 c -11,-7 -11,-7 -24,-4 -13,3 -261,64 -261,64 l 266,-135 c 14,-7 17,-7 29,-0 12,7 380,211 392,217 12,6 13,6 21,1 8,-5 357,-203 371,-212 14,-9 11,-10 28,-1 259,146 261,144 261,144 l -268,-66 c -13,-3 -14,-5 -26,4 -12,8 -292,182 -309,193 -14,9 -9,2 -19,28 -31,78 -134,103 -167,102 -33,-1 -53,17 -45,52 -60,-31 -53,-87 -34,-113 19,-26 69,-53 80,-61 12,-9 18,-9 -1,-21 z"
            id="bird-bottom" />
      </g>
      <g id="outer-ring-content">
         <path id="letter-circle-left" d="M 219,1415 a 15,15 0 1 0 -30,0 15,15 0 1 0 30,0 z" style="fill: #ffffff" />
         <path id="letter-circle-right" d="M 1814,1415 a 15,15 0 1 0 -30,0 15,15 0 1 0 30,0 z" style="fill: #ffffff" />
         <g id="letters">
            <g id="letters-lsv" transform="translate(-0.2142,-0.78)" aria-label="LUFTSPORTVEREIN DEGERFELD E.V."
               style="fill:red">
               <path d="M 147.3426,1070.5205 m 0,0 8.78594,62.0208 -103.011523,14.5927 3.938523,27.8024 126.89309,-17.9758 -12.72446,-89.8232 z
      M 41.446536,952.56466 l 0.216111,28.07916 76.677733,-0.59014 c 10.43969,-0.0803 18.1947,1.84002 23.26225,5.40112 5.06756,3.56111 7.64013,10.38151 7.71771,20.4612 0.0803,10.4397 -2.38417,17.6589 -7.39354,21.6576 -5.00938,3.9986 -12.73391,6.0381 -23.1736,6.1185 l -76.677727,0.5901 0.21611,28.0792 76.677727,-0.5901 c 18.35946,-0.1413 32.00581,-4.5665 40.75628,-13.6341 8.75047,-9.0676 12.96367,-22.9605 12.81683,-42.0399 -0.14407,-18.71945 -4.56923,-32.3658 -13.27686,-41.11904 -8.70762,-8.75324 -22.42185,-13.14783 -40.78131,-13.00652 z
      m 14.08553,-121.36231 -11.295391,89.65123 127.154735,16.02056 3.51012,-27.85975 -52.14773,-6.57023 6.77274,-53.75502 -22.14493,-2.7901 -6.77273,53.75503 -29.467041,-3.71263 7.78527,-61.79149 z
      M 83.0151,717.18912 57.549214,819.36338 l 23.229361,5.78968 9.315726,-37.37657 101.126319,25.2047 6.83443,-27.42112 -101.126315,-25.2047 9.315725,-37.37657 z
      m 76.63881,-94.82316 c -12.8878,-4.60181 -23.97749,-3.87547 -33.60481,2.04908 -9.69228,6.09243 -17.10465,15.76937 -22.30207,29.1987 -5.392316,13.93293 -6.322854,26.31148 -3.19231,37.17358 3.29841,10.92707 10.40328,18.50206 21.31461,22.72496 3.35733,1.29935 6.50887,2.13304 9.68744,2.39816 3.17857,0.26512 5.91851,0.16746 8.32271,-0.0601 2.40421,-0.22759 4.83545,-1.02374 7.59153,-2.65923 2.58822,-1.70046 4.81366,-2.96228 6.47054,-4.25114 1.59191,-1.12099 3.57362,-3.24919 6.21591,-6.08678 2.47442,-2.90255 4.28827,-5.09571 5.37658,-6.41161 1.15327,-1.48376 3.03209,-3.84479 5.76638,-7.41882 0.19491,-0.50359 0.55768,-0.94223 0.92045,-1.38086 0.42773,-0.6065 0.72553,-0.87726 1.02334,-1.14803 0.12993,-0.33573 0.4927,-0.77436 0.92044,-1.38086 7.90507,-10.45131 13.34662,-17.03079 16.79031,-19.94424 3.27582,-2.97842 6.9471,-3.48767 11.14376,-1.86348 4.86813,1.88407 8.01442,5.22486 9.30893,10.35811 1.2945,5.13324 0.72634,11.08969 -1.93734,17.97222 -6.75664,17.45812 -17.8189,23.59937 -32.95393,18.32084 l -10.07,26.01933 c 13.4943,5.02955 25.88899,4.42225 36.78338,-1.78397 10.89439,-6.20621 19.69287,-17.46982 25.92977,-33.58501 2.46877,-6.37893 3.96827,-12.74697 4.83424,-18.97417 0.86597,-6.22721 0.69771,-12.27566 -0.5048,-18.14534 -1.2025,-5.86968 -3.73704,-11.28984 -7.73355,-15.92474 -3.93155,-4.80276 -9.45501,-8.48453 -16.16967,-11.08324 -9.40053,-3.63819 -17.72324,-3.57807 -24.96814,0.18036 -7.24491,3.75843 -14.88486,11.03117 -22.78993,21.48248 -1.87882,2.36102 -3.88757,5.05778 -6.15619,8.42601 -2.37152,3.13539 -4.08247,5.56139 -5.36569,7.38088 -1.45108,1.75453 -2.96712,3.67693 -4.54814,5.76719 -1.58101,2.09026 -2.96712,3.67692 -4.15833,4.75998 -1.12624,0.9152 -2.25248,1.83039 -3.77942,2.78352 -1.46198,0.78526 -2.79402,1.23479 -3.99612,1.34858 -1.305,-0.11904 -2.77787,-0.30305 -4.1208,-0.82279 -4.36453,-1.68916 -7.00722,-4.83505 -8.058,-9.10193 -1.05078,-4.26688 -0.40675,-9.42192 1.93209,-15.46511 5.45729,-14.1008 14.25617,-19.38093 26.5645,-15.77542 z
      m -23.11404,-40.40621 112.44987,61.48179 13.38438,-24.47995 -40.43142,-22.10582 13.81614,-25.26963 c 6.47631,-11.84515 8.74294,-23.11986 6.79989,-33.82415 -2.0294,-10.54635 -8.95928,-19.25879 -20.80442,-25.7351 -12.00308,-6.56267 -23.07781,-7.69422 -33.13784,-3.5526 -10.06002,4.14163 -18.65883,12.36453 -25.5669,24.99935 z
      m 33.60008,-13.42705 12.08912,-22.11093 c 6.90807,-12.63482 15.97618,-16.08789 26.71578,-10.21603 10.73959,5.87186 12.56901,15.28313 5.57459,28.07588 l -12.00277,21.953 z
      m 62.20246,-147.01961 c -11.58538,15.38593 -15.86421,31.54179 -13.01581,48.10726 2.84839,16.56546 12.46883,31.01984 28.57372,43.1466 16.10489,12.12675 32.5111,17.27006 49.32692,15.28615 16.70754,-1.84013 30.79986,-10.38125 42.27697,-25.62338 11.26056,-14.95454 15.57491,-30.85834 12.72651,-47.4238 -2.84839,-16.56547 -12.21676,-31.05537 -28.32165,-43.18212 -15.9611,-12.01848 -32.47559,-17.018 -49.32692,-15.28615 -16.85134,1.73185 -30.97918,10.0209 -42.23974,24.97544 z
      m 18.18904,14.14674 c 6.3882,-8.48383 14.64057,-12.86009 24.7571,-13.12879 10.00826,-0.1249 20.44102,3.67501 31.22555,11.79561 10.92832,8.22886 17.71527,17.16983 20.36085,26.8229 2.64559,9.65306 0.72015,18.7934 -5.66805,27.27723 -6.74855,8.66314 -15.10919,13.18319 -25.08192,13.56017 -10.00826,0.1249 -20.58482,-3.78329 -31.51314,-12.01216 -10.64073,-8.01232 -17.17562,-16.9888 -19.71293,-26.78566 -2.53731,-9.79686 -0.75566,-19.04548 5.63254,-27.5293 z
      m 42.55794,-84.37815 89.79536,91.44277 19.90678,-19.54815 -35.18666,-35.83221 17.85188,-17.53027 c 6.42155,-6.30585 12.04937,-9.30953 17.01421,-9.39168 5.09096,0.0463 10.92011,2.89952 17.99655,8.56436 0.37835,0.38529 2.27242,2.05721 5.80832,5.14417 3.53591,3.08697 6.44123,5.53179 8.84439,7.20833 2.27474,1.80266 4.5541,3.09622 6.71197,3.75226 l 20.8058,-20.43097 c -1.40117,0.11455 -2.79771,-0.28 -4.5726,-1.05984 -1.7749,-0.77984 -3.79971,-2.07109 -5.82221,-3.61689 -2.14862,-1.67422 -4.04501,-3.09159 -5.43461,-4.24978 -1.51803,-1.03208 -3.4121,-2.70399 -5.68452,-4.7612 -2.52697,-2.05952 -3.78814,-3.34383 -4.16649,-3.72912 -13.51535,-11.45117 -25.07299,-14.2292 -34.42068,-8.07723 2.72945,-6.21213 3.55093,-12.56889 2.20992,-19.07258 -1.34101,-6.5037 -4.59692,-12.38838 -9.76772,-17.65405 -8.57596,-8.7333 -17.96184,-12.38258 -27.77466,-11.07164 -10.06737,1.30862 -19.53423,6.56851 -28.52439,15.39671 z
      m 35.5453,-3.62272 19.90678,-19.54815 c 5.13724,-5.04468 9.8753,-8.18372 14.72327,-9.4125 4.72187,-1.35721 9.41596,0.34016 14.20841,5.22053 5.04469,5.13723 6.65413,10.11596 5.33743,14.9408 -1.3167,4.82484 -4.80053,10.01184 -10.32306,15.43487 l -19.00777,18.66533 z
      m 137.12218,-144.79672 -84.12365,63.33484 14.3992,19.12554 30.77344,-23.16864 62.68525,83.26084 22.57677,-16.99755 -62.68525,-83.26084 30.77344,-23.16865 z
      m 5.7749,-4.2198 100.29287,90.14038 27.61069,-15.89684 -26.97635,-132.35232 -25.2708,14.54964 19.63552,92.54595 -69.86514,-63.62628 z
      m 205.71409,-102.204504 -88.70208,37.026944 49.36926,118.26945 89.86484,-37.51232 -9.08339,-21.76025 -64.11798,26.7648 -12.1343,-29.06904 57.80585,-24.12992 -8.52868,-20.43138 -57.80585,24.12992 -10.74752,-25.74686 62.95522,-26.27942 z
      m 28.04124,-9.601188 32.76273,123.901532 26.97295,-7.13234 -12.83821,-48.5513 24.18864,-6.3961 c 8.70095,-2.30075 15.07775,-2.12507 19.43241,0.26099 4.40069,2.56008 8.05343,7.92454 11.39829,16.3494 0.13805,0.52206 0.95628,2.91231 2.50071,7.34477 1.54443,4.43247 2.85878,7.99483 4.11708,10.64109 1.08428,2.69228 2.42457,4.94448 3.97485,6.5826 l 28.19108,-7.45444 c -1.27419,-0.594 -2.29237,-1.62808 -3.4486,-3.18421 -1.15623,-1.55613 -2.27648,-3.68033 -3.26873,-6.02456 -1.03826,-2.51826 -1.9845,-4.68848 -2.61867,-6.38265 -0.80819,-1.64816 -1.62642,-4.03841 -2.58269,-6.95072 -1.17631,-3.04031 -1.63646,-4.7805 -1.77451,-5.30256 -6.07565,-16.63973 -14.74315,-24.77426 -25.91049,-24.05557 5.44645,-4.04679 9.30665,-9.16363 11.36056,-15.47852 2.05391,-6.3149 2.13756,-13.03973 0.25094,-20.174509 -3.12902,-11.833292 -9.47823,-19.649915 -18.65356,-23.367879 -9.39537,-3.845967 -20.22471,-3.961397 -32.40604,-0.740342 z
      m 32.67881,14.446022 26.97295,-7.132339 c 6.96076,-1.840603 12.63144,-2.222957 17.4521,-0.891052 4.77466,1.157885 8.01326,4.956179 9.76183,11.568901 1.84061,6.96076 0.77475,12.08345 -2.75749,15.62408 -3.53225,3.54063 -9.12679,6.32327 -16.60961,8.30192 l -25.75481,6.81023 z
      m 195.68063,-58.46191 -95.41052,11.657139 15.54286,127.214011 96.66121,-11.80995 -2.85971,-23.40594 -68.96715,8.42632 -3.82022,-31.26749 62.17763,-7.59679 -2.68507,-21.976578 -62.17764,7.596788 -3.38362,-27.694062 67.71645,-8.273513 z
      m 50.82681,-0.960335 -28.24647,0.874491 3.96585,128.098624 28.24647,-0.87449 z
      m 19.24465,126.374365 27.1139,1.89461 5.9975,-85.830714 46.9734,89.532104 28.0117,1.95735 8.9335,-127.848263 -26.9343,-1.882063 -5.985,85.651156 -46.6268,-89.327453 -28.5503,-1.994988 z
      m 163.5019,16.98601 49.9963,13.70238 c 19.0958,5.23355 35.279,4.06971 48.6447,-3.83872 13.3181,-7.73483 22.7129,-21.58415 28.1843,-41.54795 5.4239,-19.7902 4.4028,-36.49418 -3.0633,-50.11194 -7.5136,-13.444157 -20.7946,-22.86981 -39.8904,-28.103359 l -49.9963,-13.702384 z
      m 33.0928,-15.19323 21.5051,-78.466421 19.7902,5.423861 c 11.9783,3.28286 20.0539,9.22887 24.1007,17.61684 4.0468,8.38798 4.3336,18.9183 0.908,31.41738 -7.1842,26.21334 -22.7308,35.95035 -46.6874,29.38462 z
      m 224.662,-30.255 -88.2875,-38.00489 -50.6732,117.71666 89.4448,38.50309 9.3233,-21.65855 -63.8183,-27.4717 12.4548,-28.93317 57.5357,24.76724 8.7539,-20.33589 -57.5357,-24.76723 11.0314,-25.62652 62.661,26.97351 z
      m 92.8322,122.65783 -45.9548,-28.01337 -10.8681,17.82861 24.4375,14.89675 c -4.8045,7.18997 -11.0712,11.59135 -18.6465,13.2978 -7.7289,1.61276 -15.1884,0.0169 -22.5657,-4.48025 -9.5291,-5.80879 -15.0927,-13.62721 -16.2896,-23.42156 -1.197,-9.79435 1.8116,-20.60878 9.1194,-32.59699 7.1205,-11.68082 15.261,-19.15609 24.5153,-22.5795 9.2544,-3.42342 18.3855,-2.49496 27.6072,3.12645 6.3015,3.8413 10.4965,8.71741 12.7725,14.32095 2.336,5.85092 2.2318,11.90081 -0.1589,18.24335 l 23.2079,14.14722 c 5.5498,-12.21664 6.0993,-24.53011 1.8022,-36.84673 -4.2972,-12.31662 -12.5936,-22.22254 -25.1966,-29.90514 -15.6769,-9.5564 -31.8664,-12.04705 -48.5686,-7.47196 -16.5485,4.66879 -29.9588,15.25586 -40.2648,32.16231 -10.3059,16.90645 -13.8798,33.48969 -10.7216,49.74975 3.0644,16.41374 12.3283,29.22828 27.5441,38.50361 13.8325,8.43212 27.743,10.16588 42.0723,4.9876 l -5.2834,13.85464 15.2158,9.27533 z
      m 129.6853,29.51019 -74.231,-61.06399 -81.4187,98.97468 75.2041,61.86446 14.9801,-18.21023 -53.6576,-44.13989 20.0116,-24.32664 48.3752,39.79451 14.0653,-17.09816 -48.3752,-39.79451 17.7245,-21.54645 52.6846,43.33942 z
      m 21.607,20.28861 -94.167,86.93416 18.9252,20.49985 36.8998,-34.06549 16.9717,18.38374 c 6.1049,6.61286 8.9337,12.33058 8.8628,17.2956 -0.2032,5.08711 -3.2348,10.82555 -9.115,17.72402 -0.3968,0.36629 -2.1263,2.20793 -5.3208,5.647 -3.1945,3.43908 -5.7277,6.26766 -7.4775,8.61801 -1.8719,2.21809 -3.2351,4.4565 -3.9574,6.59313 l 19.78,21.42565 c -0.071,-1.40403 0.3661,-2.78775 1.2003,-4.53776 0.8342,-1.75002 2.1872,-3.73407 3.7946,-5.70796 1.7397,-2.096 3.2148,-3.94779 4.4153,-5.30103 1.0784,-1.4855 2.8079,-3.32714 4.9341,-5.53507 2.1365,-2.46229 3.459,-3.68328 3.8558,-4.04957 11.8623,-13.15597 14.9953,-24.62249 9.1343,-34.15536 6.1251,2.91962 12.4535,3.93665 18.9954,2.79674 6.542,-1.13991 12.5242,-4.21289 17.9468,-9.21893 8.9935,-8.3027 12.9303,-17.57164 11.9225,-27.4202 -0.9977,-10.10292 -5.9633,-19.72741 -14.5102,-28.98541 z
      m 2.5254,35.64007 18.9253,20.49986 c 4.8839,5.29028 7.8755,10.12284 8.9542,15.00639 1.211,4.76146 -0.6302,9.401 -5.656,14.04075 -5.2903,4.88394 -10.3162,6.33916 -15.0982,4.87437 -4.782,-1.46479 -9.8591,-5.10685 -15.1093,-10.7939 L 1645.57,371.92278 Z
      m 139.7321,140.06308 -52.098,-73.82905 -104.7137,73.89198 16.1898,22.94289 42.9444,-30.30401 31.2381,44.26801 18.2366,-12.86882 -31.238,-44.26802 24.2665,-17.12384 35.9082,50.88615 z
      m 57.0552,104.07922 -45.3696,-84.73876 -112.985,60.49276 45.9643,85.84957 20.788,-11.12999 -32.7953,-61.25311 27.7702,-14.86831 29.5667,55.22301 19.5185,-10.45029 -29.5667,-55.22301 24.5965,-13.16907 32.2005,60.1423 z
      m -53.735,146.64544 -22.5714,-58.43205 97.051,-37.48915 -10.1182,-26.19368 -119.5506,46.1804 32.6895,84.62574 z
      m -20.2315,15.0043 12.1007,50.40793 c 4.6218,19.25302 13.444,32.86987 26.8167,40.76651 13.1976,7.93866 29.8606,9.49205 49.9887,4.66018 19.9532,-4.78986 34.0951,-13.73812 42.4258,-26.84478 8.1557,-13.06465 10.0102,-29.24449 5.3884,-48.49752 l -12.1007,-50.40792 z
      m 29.2661,21.66715 79.1124,-18.99137 4.7899,19.95314 c 2.8991,12.0769 1.5834,22.01865 -3.8141,29.60823 -5.3975,7.58957 -14.4848,12.91795 -27.0868,15.94312 -26.4291,6.34446 -42.4553,-2.58122 -48.2536,-26.73501 z
      m 135.7543,228.91054 -4.6067,-96.00949 -128.0128,6.14236 4.6672,97.26813 23.5529,-1.1302 -3.33,-69.40011 31.4638,-1.50971 3.0022,62.56802 22.1145,-1.0611 -3.0021,-62.56804 27.8679,-1.33717 3.2696,68.14161 z
      m -102.6818,45.0003 1.1611,-28.4163 -28.0566,-1.1464 -1.1611,28.4163 z
      m 100.4696,13.2188 -132.0903,27.1315 -3.614,31.6543 122.4936,56.9225 3.3078,-28.9718 -86.1113,-39.1809 92.686,-18.405 z
      m -116.6938,110.6379 5.2739,-27.9468 -27.5929,-5.2072 -5.274,27.9468 z" />
            </g>
            <g id="letters-plz" style="fill:red" transform="translate(-0.2142,-0.78)" aria-label="D-72461 ALBSTADT">
               <path
                  d="m 246.04277,1596.7197 34.40759,38.775 c 13.14178,14.8099 27.33587,22.6698 42.85152,23.3407 15.38102,0.7905 30.81307,-5.6839 46.29615,-19.423 15.34846,-13.6197 23.61226,-28.1722 24.79142,-43.6575 1.04452,-15.3659 -4.9368,-30.5135 -18.07858,-45.3234 l -34.40759,-38.7751 z
      m 36.02059,5.3373 60.85527,-54.0008 13.61967,15.3484 c 8.24348,9.2899 11.76325,18.6803 10.57448,27.9173 -1.18878,9.237 -6.69737,18.2161 -16.39113,26.818 -20.32997,18.0401 -38.67112,17.7106 -55.15809,-0.8691 z
      m 135.95319,84.3579 -40.25203,-36.2663 -15.30174,16.9834 40.25203,36.2663 z
      m 118.15449,9.3158 -69.06101,-51.3172 -13.74185,18.4933 48.25602,35.8576 c -15.46944,2.4089 -32.82619,9.4702 -52.21474,21.0766 -19.38855,11.6064 -33.48452,23.3332 -42.50261,35.4694 l 21.23843,15.7817 c 13.89434,-16.586 28.20102,-29.5018 42.92003,-38.7474 14.719,-9.2455 32.15,-15.8032 52.40034,-19.8173 z
      m 27.88904,135.8719 -51.38261,-30.1597 c 2.08892,-1.0697 4.48832,-1.9572 7.19818,-2.6625 2.55463,-0.7965 5.57496,-1.3195 8.99688,-1.8156 3.17557,-0.4319 6.01367,-0.6445 8.20383,-0.82 2.28128,-0.3307 5.42984,-0.3611 9.31747,-0.5838 3.88762,-0.2227 6.47936,-0.3712 8.02159,-0.5095 10.85969,-0.7221 19.36387,-2.4094 25.91411,-5.0349 6.3039,-2.5614 11.9025,-7.8326 16.64057,-15.9048 5.74035,-9.7797 6.97215,-19.7013 3.7865,-29.9198 -3.18565,-10.2185 -10.36691,-18.608 -21.23333,-24.9861 -12.10829,-7.1071 -23.91963,-9.0307 -35.3429,-5.9261 -11.42327,3.1047 -20.73402,10.7887 -27.93224,23.0523 l -1.36675,2.3285 21.11189,12.3919 c 9.82373,-15.3143 20.36959,-19.7688 31.54647,-13.2084 4.65704,2.7335 7.4715,6.4727 8.62562,10.907 1.15412,4.4343 0.42854,9.2263 -2.30496,13.8834 -1.27563,2.1733 -3.01697,4.0732 -4.97766,5.6357 -2.11593,1.4713 -3.89438,2.7233 -5.55472,3.4185 -1.75146,0.8504 -4.05974,1.5827 -7.17119,2.261 -3.26668,0.5872 -5.54796,0.9179 -6.93495,1.1473 -1.45111,-0.017 -4.04285,0.1316 -7.77524,0.4455 -3.79651,0.067 -5.98667,0.2429 -6.88096,0.3442 -6.88095,0.3441 -12.15556,0.7963 -15.73271,1.2013 -3.57716,0.4049 -7.98448,1.1575 -13.06674,2.3487 -5.23749,1.1001 -9.45246,2.5917 -12.64491,4.4748 -3.19244,1.883 -6.59412,4.4781 -10.20503,7.7853 -3.61091,3.3071 -6.87423,7.4445 -9.78997,12.412 l 79.63529,46.7429 z
      m 105.73812,17.4401 -15.43214,-6.9379 31.22082,-69.4447 -21.01399,-9.4474 -80.16953,44.8727 -9.66886,21.5065 49.25153,22.1425 -11.8831,26.4316 21.67067,9.7427 11.8831,-26.4317 15.43215,6.938 z
      m -37.10282,-16.6806 -30.53594,-13.7283 49.72605,-28.9564 z
      m 141.51536,5.6431 c 1.74179,-10.6007 0.19253,-19.8105 -4.81897,-27.685 -5.06713,-7.7034 -12.85183,-13.451 -23.80776,-17.0116 -14.37965,-4.6733 -27.68508,-2.7517 -39.74512,5.8204 -11.88885,8.6279 -21.17566,22.6438 -27.57369,42.3302 -6.11985,18.8305 -6.74035,34.7165 -2.25952,47.7181 4.65202,13.0572 14.11008,21.8091 28.14735,26.3712 12.4966,4.0613 24.04739,3.4621 34.70799,-1.9688 10.60496,-5.2597 17.88035,-14.2513 21.77052,-26.8035 3.72754,-11.4695 3.36374,-21.9974 -1.20695,-31.8107 -4.62634,-9.642 -12.47524,-16.3568 -23.43116,-19.9174 -11.12711,-3.6163 -21.53094,-1.8873 -31.10023,4.8446 9.56068,-23.0117 20.98733,-32.5468 34.33986,-28.2072 8.55931,2.7817 12.36394,9.1284 11.69634,18.7534 z
      m -49.76377,13.3527 c 5.82033,1.8916 9.71911,5.6191 11.97878,10.8959 2.43086,5.3325 2.41804,11.1956 0.35954,17.5295 -2.11413,6.5051 -5.55068,11.2555 -10.65202,14.14 -4.98578,3.1113 -10.27543,3.6634 -15.92458,1.8275 -5.47796,-1.7804 -9.43237,-5.3367 -11.69204,-10.6135 -2.08849,-5.2212 -2.24685,-11.14 -0.13272,-17.6451 2.05849,-6.3338 5.66623,-11.0286 10.48083,-14.1956 4.93015,-2.9401 10.10425,-3.719 15.58221,-1.9387 z
      m 125.78954,-30.6399 -20.61492,-4.3068 c -6.6317,15.8999 -19.24912,21.7226 -37.92589,17.8207 l -3.17153,-0.6626 -3.86508,18.5006 29.9533,6.2578 -16.74871,80.1691 26.60558,5.5584 z
      m 139.7685,11.0082 -28.96744,-0.853 -52.53638,126.8486 28.78752,0.8477 11.27787,-28.3003 47.67933,1.404 9.23329,28.9043 29.5072,0.8689 z
      m 0.008,79.2346 -34.00526,-1.0014 18.49658,-47.176 z
      m 147.75035,16.0612 -62.3611,5.9044 -9.8067,-103.5768 -27.9549,2.6468 12.0802,127.5894 90.3161,-8.5512 z
      m -6.105,-104.0778 27.9705,125.0705 62.5352,-13.9852 c 12.2963,-2.7499 21.6018,-8.151 28.2287,-16.4575 6.4512,-8.2673 8.4487,-18.3052 5.7773,-30.2501 -3.5748,-15.9852 -13.5824,-24.445 -29.6714,-25.4581 4.7592,-3.4621 8.053,-7.7032 10.1935,-12.9775 1.9648,-5.235 2.4065,-10.6827 1.0709,-16.6552 -2.3571,-10.5397 -7.9502,-17.4045 -16.5064,-21.0244 -8.5563,-3.6198 -18.8069,-4.0941 -30.4006,-1.5014 z
      m 31.4539,15.2837 24.9438,-5.5784 c 6.3238,-1.4142 11.478,-1.4602 15.814,-0.2165 4.1603,1.2829 6.9568,4.7154 8.2532,10.5122 2.1606,9.6613 -3.7659,16.1512 -17.4674,19.2154 l -24.9439,5.5783 z
      m 10.7639,48.1311 26.1735,-5.8534 c 7.5534,-1.6892 13.7615,-1.9709 18.6638,-0.6694 4.9022,1.3015 8.2072,5.358 9.7393,12.2087 1.4928,6.6751 0.3669,11.5381 -3.2989,14.9401 -3.7052,3.2265 -9.0514,5.7132 -16.2535,7.3238 l -27.5787,6.1677 z
      m 171.0606,-86.1672 c -5.0403,-12.7227 -12.8999,-20.5799 -23.7026,-23.9096 -10.9718,-3.2678 -23.1345,-2.4577 -36.6571,2.492 -14.0296,5.1353 -23.9484,12.5994 -30.0489,22.1162 -6.0386,9.6858 -7.0471,20.0223 -3.0255,31.0094 1.2374,3.3807 2.6892,6.2995 4.5862,8.8637 1.8969,2.5642 3.7773,4.5594 5.534,6.2166 1.7566,1.6571 3.9585,2.9597 7.0055,3.9528 2.9852,0.8241 5.4014,1.6648 7.463,2.0603 1.8925,0.4574 4.7992,0.5435 8.6748,0.6583 3.8137,-0.054 6.6586,-0.1371 8.3655,-0.1868 1.8759,-0.1116 4.8898,-0.2564 9.3797,-0.5581 0.5071,-0.1856 1.0761,-0.2022 1.645,-0.2188 0.738,-0.078 1.138,-0.033 1.5379,0.012 0.3381,-0.1238 0.907,-0.1404 1.645,-0.2188 13.0697,-0.9503 21.6042,-1.1991 26.0654,-0.5318 4.3993,0.4981 7.2033,2.922 8.7501,7.1478 1.7943,4.902 1.3579,9.4703 -1.647,13.8288 -3.005,4.3584 -7.8572,7.8596 -14.7875,10.3963 -17.5794,6.4346 -29.4913,2.1692 -35.505,-12.6891 l -26.2,9.5901 c 5.1187,13.4607 13.7495,22.3773 25.5996,26.4737 11.8501,4.0964 26.1196,3.2819 42.3467,-2.6577 6.4232,-2.3511 12.1991,-5.4236 17.4512,-8.8795 5.2521,-3.4559 9.6878,-7.5713 13.307,-12.3463 3.6192,-4.775 6.0221,-10.2548 6.8705,-16.3157 1.0174,-6.1228 0.1423,-12.7029 -2.3326,-19.4642 -3.4648,-9.4658 -8.9988,-15.6824 -16.602,-18.6498 -7.6033,-2.9673 -18.1088,-3.914 -31.1785,-2.9636 -3.0138,0.1448 -6.3658,0.4133 -10.3938,0.9293 -3.9209,0.2851 -6.8729,0.5989 -9.087,0.8343 -2.2758,0.066 -4.7207,0.1945 -7.3347,0.3845 -2.6139,0.1901 -4.7207,0.1946 -6.3205,0.013 -1.4307,-0.243 -2.8614,-0.4861 -4.5849,-1.0053 -1.5545,-0.5811 -2.7708,-1.2859 -3.6492,-2.1145 -0.7711,-1.0595 -1.6042,-2.288 -2.0991,-3.6403 -1.6087,-4.3948 -0.9868,-8.456 1.5277,-12.0599 2.5144,-3.6039 6.8142,-6.5195 12.8994,-8.7469 14.1987,-5.1972 23.9707,-2.0652 29.3777,9.5648 z
      m 81.8781,-83.7389 -94.0676,47.3221 10.7587,21.3863 34.411,-17.311 46.8368,93.1028 25.2455,-12.7002 -46.8368,-93.1027 34.4111,-17.311 z
      m 44.2912,-30.9403 -24.166,15.9951 30.1584,133.9444 24.016,-15.8957 -7.0907,-29.6281 39.7764,-26.3273 24.202,18.3023 24.6163,-16.2931 z
      m 45.6646,64.7523 -28.3688,18.7768 -12.0679,-49.2145 z
      m 77.3864,5.7135 38.8916,-34.2758 c 14.8545,-13.0914 22.7625,-27.2587 23.4861,-42.772 0.8426,-15.3782 -5.5793,-30.8322 -19.2658,-46.3618 -13.5675,-15.3946 -28.0919,-23.7078 -43.5731,-24.9395 -15.3622,-1.0967 -30.53,4.8332 -45.3845,17.9246 l -38.8916,34.2758 z
      m 5.4596,-36.0023 -53.7939,-61.0382 15.3946,-13.5675 c 9.3177,-8.2119 18.7201,-11.6997 27.953,-10.4796 9.2329,1.2201 18.1933,6.7591 26.7622,16.482 17.971,20.3911 17.5792,38.7311 -1.0564,55.1549 z
      m 61.6882,-212.6243 -69.2451,79.3297 18.0356,15.7429 25.3307,-29.0198 78.5161,68.5349 18.5837,-21.2902 -78.5161,-68.5349 25.3307,-29.0197 z" />
            </g>
         </g>
         <text id="text1"
            style="font-style:normal;font-variant:normal;font-weight:bold;font-stretch:normal;font-size:180px;line-height:1;font-family:'Helvetica Neue';fill:#ffffff">
            <textPath id="text-path-lsv" startOffset="50%" text-anchor="middle"
               path="M 585,1718.8 A 830,830 0 1 1 1415,1718.8" style="letter-spacing:-9.65729px">LUFTSPORTVEREIN
               DEGERFELD E.V.</textPath>
         </text>
         <text id="text2"
            style="font-style:normal;font-variant:normal;font-weight:bold;font-stretch:normal;font-size:180px;line-height:1;font-family:'Helvetica Neue';fill:#ffffff">
            <textPath id="text-path-place" startOffset="50%" side="right" text-anchor="middle"
               style="letter-spacing:3.86292px" path="m 1960,1000 A 960,960 0 0 1 40,1000">D-72461 ALBSTADT</textPath>
         </text>
      </g>
   </g>
</svg>