<?xml version="1.0" encoding="UTF-8" standalone="no"?>
<svg
   viewBox="0 0 2000 2000"
   version="1.1"
   id="lsv-degerfeld-logo"
   sodipodi:docname="logo-reduced.svg"
   inkscape:version="1.4.1-rc (06eac75fbf, 2025-03-29)"
   inkscape:export-filename="../b98fdc02/logo-reduced.png"
   inkscape:export-xdpi="96"
   inkscape:export-ydpi="96"
   xmlns:inkscape="http://www.inkscape.org/namespaces/inkscape"
   xmlns:sodipodi="http://sodipodi.sourceforge.net/DTD/sodipodi-0.dtd"
   xmlns:xlink="http://www.w3.org/1999/xlink"
   xmlns="http://www.w3.org/2000/svg"
   xmlns:svg="http://www.w3.org/2000/svg">
  <defs
     id="defs1" />
  <sodipodi:namedview
     id="namedview1"
     pagecolor="#ffffff"
     bordercolor="#000000"
     borderopacity="0.25"
     inkscape:showpageshadow="2"
     inkscape:pageopacity="0.0"
     inkscape:pagecheckerboard="0"
     inkscape:deskcolor="#d1d1d1"
     inkscape:zoom="0.11313708"
     inkscape:cx="1489.3437"
     inkscape:cy="543.58834"
     inkscape:window-width="3840"
     inkscape:window-height="1531"
     inkscape:window-x="1440"
     inkscape:window-y="568"
     inkscape:window-maximized="1"
     inkscape:current-layer="outer-ring-content"
     showguides="true"
     guidecolor="#e50032"
     guideopacity="0.6">
    <sodipodi:guide
       position="1000,1349.1525"
       orientation="-1,0"
       id="guide2"
       inkscape:locked="false"
       inkscape:label=""
       inkscape:color="rgb(224,27,36)" />
    <sodipodi:guide
       position="-1299.435,1000"
       orientation="0,1"
       id="guide3"
       inkscape:locked="false"
       inkscape:label=""
       inkscape:color="rgb(224,27,36)" />
    <sodipodi:guide
       position="875,2228.2486"
       orientation="-1,0"
       id="guide4"
       inkscape:locked="false"
       inkscape:label=""
       inkscape:color="rgb(224,27,36)" />
    <sodipodi:guide
       position="1125,1792.0904"
       orientation="-1,0"
       id="guide5"
       inkscape:locked="false"
       inkscape:label=""
       inkscape:color="rgb(224,27,36)" />
    <sodipodi:guide
       position="-1735.5932,1800"
       orientation="0,1"
       id="guide6"
       inkscape:locked="false"
       inkscape:label=""
       inkscape:color="rgb(0,134,229)" />
    <sodipodi:guide
       position="-1864.4068,200"
       orientation="0,1"
       id="guide7"
       inkscape:locked="false"
       inkscape:label=""
       inkscape:color="rgb(0,134,229)" />
    <sodipodi:guide
       position="200,1231.6384"
       orientation="-1,0"
       id="guide8"
       inkscape:locked="false"
       inkscape:label=""
       inkscape:color="rgb(0,134,229)" />
    <sodipodi:guide
       position="1800,1848.5876"
       orientation="-1,0"
       id="guide9"
       inkscape:locked="false"
       inkscape:label=""
       inkscape:color="rgb(0,134,229)" />
    <sodipodi:guide
       position="-1954.8023,1400"
       orientation="0,1"
       id="guide10"
       inkscape:locked="false"
       inkscape:label=""
       inkscape:color="rgb(192,28,40)" />
    <sodipodi:guide
       position="-1848.5876,600"
       orientation="0,1"
       id="guide11"
       inkscape:locked="false"
       inkscape:label=""
       inkscape:color="rgb(224,27,36)" />
  </sodipodi:namedview>
  <image
     width="2000"
     height="2000"
     preserveAspectRatio="none"
     xlink:href="../11539dad/Logo%20(Copy).png"
     id="image1"
     x="0"
     y="0"
     style="display:none" />
  <path
     id="inner-circle-with-birds"
     style="display:none;fill:#0087c1"
     d="m 1775,1000 a 775,775 0 1 0 -1550,0 775,775 0 1 0 1550,0 z M 606,526 c -11,-7 -11,-7 -23.5,-5 -13,2 -178,34 -178,34 l 170,-113 c 13,-8 13,-8 25,-1 12,7 399,210 411,216 12,6 12,6 20,1 8,-5 346,-193 360,-202 14,-9 14,-9 30,2 C 1607,584 1606,584 1606,584 l -205,-41 c -13,-3 -13,-3 -25,6 -12,8 -276,167 -293,178 -14,9 -14,9 -24,35 -31,78 -103,97 -171,102 -36,2 -62,-4 -54,31 -44,-33 -41,-81 -22,-107 19,-26 84,-54 97,-61 11,-6 11,-6 -9,-17 z m -2,342 c -11,-7 -11,-7 -27,-2 -16,5 -290,72 -290,72 L 579,781 c 13,-8 18,-5 30,2 12,7 371,210 383,216 12,6 12,6 21,1 8,-5 361,-196 375,-205 14,-9 14,-9 29,0 285,153 285,153 285,153 l -288,-79 c -13,-3 -13,-3 -25,5 -12,8 -288,176 -305,186 -15,9 -15,9 -19,22 -23,72 -144,98 -166,100 -33,2 -64,-4 -62,39 -43,-37 -24,-92 -12,-105 12,-14 56,-42 69,-50 9,-5 6,-6 -13,-18 z m -12,333 c -11,-7 -11,-7 -24,-4 -13,3 -261,64 -261,64 l 266,-135 c 14,-7 17,-7 29,0 12,7 380,211 392,217 12,6 13,6 21,1 8,-5 357,-203 371,-212 14,-9 11,-10 28,-1 259,146 261,144 261,144 l -268,-66 c -13,-3 -14,-5 -26,4 -12,8 -292,182 -309,193 -14,9 -9,2 -19,28 -31,78 -134,103 -167,102 -33,-1 -53,17 -45,52 -60,-31 -53,-87 -34,-113 19,-26 69,-53 80,-61 12,-9 18,-9 -1,-21 z" />
  <g
     id="sources"
     display="inline">
    <g
       id="circles"
       style="display:inline">
      <circle
         style="display:inline;fill:none;stroke:#0087c1;stroke-width:200;stroke-dasharray:none"
         id="outer-ring"
         cx="1000"
         cy="1000"
         r="900"
         inkscape:label="outer-ring" />
      <circle
         style="display:none;fill:#0087c1"
         id="inner-circle"
         cx="1000"
         cy="1000"
         r="775" />
    </g>
    <g
       id="birds"
       style="display:inline">
      <path
         style="display:none;fill:#0087c1;fill-opacity:1;stroke:#000000;stroke-opacity:1"
         d="m 606,526 c -11,-7 -11,-7 -23.5,-5 -13,2 -178,34 -178,34 l 170,-113 c 13,-8 13,-8 25,-1 12,7 399,210 411,216 12,6 12,6 20,1 8,-5 346,-193 360,-202 14,-9 14,-9 30,2 C 1607,584 1606,584 1606,584 l -205,-41 c -13,-3 -13,-3 -25,6 -12,8 -276,167 -293,178 -14,9 -14,9 -24,35 -31,78 -103,97 -171,102 -36,2 -62,-4 -54,31 -44,-33 -41,-81 -22,-107 19,-26 84,-54 97,-61 11,-6 11,-6 -9,-17 z"
         id="bird-top" />
      <path
         style="display:none;fill:#0087c1;fill-opacity:1;stroke:#000000;stroke-opacity:1"
         d="m 604,868 c -11,-7 -11,-7 -27,-2 -16,5 -290,72 -290,72 L 579,781 c 13,-8 18,-5 30,2 12,7 371,210 383,216 12,6 12,6 21,1 8,-5 361,-196 375,-205 14,-9 14,-9 29,0 285,153 285,153 285,153 l -288,-79 c -13,-3 -13,-3 -25,5 -12,8 -288,176 -305,186 -15,9 -15,9 -19,22 -23,72 -144,98 -166,100 -33,2 -64,-4 -62,39 -43,-37 -24,-92 -12,-105 12,-14 56,-42 69,-50 9,-5 6,-6 -13,-18 z"
         id="bird-middle" />
      <path
         style="display:none;fill:#0087c1;fill-opacity:1;stroke:#000000;stroke-opacity:1"
         d="m 592,1201 c -11,-7 -11,-7 -24,-4 -13,3 -261,64 -261,64 l 266,-135 c 14,-7 17,-7 29,0 12,7 380,211 392,217 12,6 13,6 21,1 8,-5 357,-203 371,-212 14,-9 11,-10 28,-1 259,146 261,144 261,144 l -268,-66 c -13,-3 -14,-5 -26,4 -12,8 -292,182 -309,193 -14,9 -9,2 -19,28 -31,78 -134,103 -167,102 -33,-1 -53,17 -45,52 -60,-31 -53,-87 -34,-113 19,-26 69,-53 80,-61 12,-9 18,-9 -1,-21 z"
         id="bird-bottom" />
    </g>
    <g
       id="outer-ring-content"
       transform="translate(0,4)">
      <path
         id="letter-circle-left"
         d="m 219,1415 a 15,15 0 1 0 -30,0 15,15 0 1 0 30,0 z"
         style="display:none;fill:#ffffff" />
      <path
         id="letter-circle-right"
         d="m 1814,1415 a 15,15 0 1 0 -30,0 15,15 0 1 0 30,0 z"
         style="display:none;fill:#ffffff" />
      <g
         id="letters"
         style="display:none" />
      <rect
         style="fill:#0087c1;fill-opacity:1;stroke:none;stroke-width:200;stroke-dasharray:none;stroke-opacity:1"
         id="rect11"
         width="800"
         height="200"
         x="488.35608"
         y="77.868233"
         transform="rotate(30)" />
      <rect
         style="fill:#0087c1;fill-opacity:1;stroke:none;stroke-width:200;stroke-dasharray:none;stroke-opacity:1"
         id="rect12"
         width="1000"
         height="200"
         x="255.94354"
         y="1078.1925"
         transform="rotate(-30)" />
      <rect
         style="fill:#0087c1;fill-opacity:1;stroke:none;stroke-width:200;stroke-dasharray:none;stroke-opacity:1"
         id="rect11-2"
         width="1000"
         height="200"
         x="513.0799"
         y="425.1467"
         transform="rotate(30)" />
      <rect
         style="fill:#0087c1;fill-opacity:1;stroke:none;stroke-width:200;stroke-dasharray:none;stroke-opacity:1"
         id="rect12-6"
         width="1200"
         height="200"
         x="54.365025"
         y="1424.8502"
         transform="rotate(-30)" />
      <rect
         style="fill:#0087c1;fill-opacity:1;stroke:none;stroke-width:200;stroke-dasharray:none;stroke-opacity:1"
         id="rect11-9"
         width="1100"
         height="200"
         x="608.67938"
         y="771.41119"
         transform="rotate(30)" />
      <rect
         style="fill:#0087c1;fill-opacity:1;stroke:none;stroke-width:200;stroke-dasharray:none;stroke-opacity:1"
         id="rect12-2"
         width="1200"
         height="200"
         x="-145.16531"
         y="1771.4125"
         transform="rotate(-30)" />
    </g>
  </g>
</svg>
